<svg width="114" height="63" viewBox="0 0 114 63" fill="none" xmlns="http://www.w3.org/2000/svg">
<path opacity="0.5" d="M52.0157 9.35129L39.286 56.8829C39.2212 57.0986 38.9623 57.1634 38.8113 57.0123L30.2888 48.4899L36.6753 24.6701C36.74 24.4544 36.5458 24.2602 36.3301 24.3249L12.5103 30.7114L4.03104 22.2321C3.88001 22.081 3.94474 21.8221 4.1605 21.7574L51.6705 9.00608C51.8863 8.96292 52.0804 9.15711 52.0157 9.35129Z" fill="#00B37E"/>
<path opacity="0.5" d="M30.2885 48.49L27.009 60.7882C26.9442 61.004 26.6853 61.0687 26.5343 60.9177L0.0823113 34.4873C-0.0687196 34.3362 -0.00399244 34.0773 0.211766 34.0126L12.51 30.7115L30.2885 48.49Z" fill="#00B37E"/>
<path d="M36.6752 24.6699L30.2887 48.4897L12.5103 30.7112L36.33 24.3247C36.5457 24.26 36.7399 24.4542 36.6752 24.6699Z" fill="#00B37E"/>
<path d="M63.622 56.6314C63.622 56.4246 63.576 56.2334 63.4839 56.0576C63.3969 55.8767 63.2153 55.7139 62.939 55.5691C62.6678 55.4192 62.2585 55.29 61.711 55.1814C61.2505 55.0832 60.8335 54.9669 60.46 54.8325C60.0916 54.6981 59.777 54.5353 59.516 54.344C59.2602 54.1527 59.0632 53.9279 58.9251 53.6694C58.7869 53.411 58.7179 53.1086 58.7179 52.7622C58.7179 52.4314 58.7895 52.1187 58.9328 51.824C59.0811 51.5294 59.2884 51.2683 59.5544 51.0409C59.8256 50.8134 60.1505 50.6351 60.5291 50.5059C60.9077 50.3766 61.3298 50.312 61.7954 50.312C62.4606 50.312 63.0285 50.4309 63.4992 50.6687C63.97 50.9065 64.3307 51.2244 64.5814 51.6224C64.8321 52.0153 64.9574 52.4521 64.9574 52.9328H63.5376C63.5376 52.7002 63.4685 52.4753 63.3304 52.2582C63.1974 52.0359 63.0004 51.8524 62.7394 51.7077C62.4836 51.563 62.1689 51.4906 61.7954 51.4906C61.4015 51.4906 61.0817 51.5526 60.8361 51.6767C60.5956 51.7956 60.4191 51.9481 60.3065 52.1342C60.1991 52.3203 60.1454 52.5167 60.1454 52.7235C60.1454 52.8785 60.171 53.0181 60.2221 53.1422C60.2784 53.2611 60.3756 53.3722 60.5138 53.4756C60.6519 53.5738 60.8463 53.6668 61.097 53.7547C61.3477 53.8426 61.6675 53.9305 62.0564 54.0183C62.7369 54.1734 63.2971 54.3595 63.7372 54.5766C64.1772 54.7937 64.5046 55.0599 64.7195 55.3753C64.9344 55.6906 65.0419 56.0731 65.0419 56.5228C65.0419 56.8898 64.9651 57.2258 64.8116 57.5308C64.6632 57.8358 64.4458 58.0994 64.1593 58.3217C63.8779 58.5388 63.5402 58.7094 63.1462 58.8335C62.7573 58.9524 62.3199 59.0118 61.8338 59.0118C61.1022 59.0118 60.4831 58.88 59.9765 58.6164C59.47 58.3527 59.0863 58.0116 58.8253 57.5929C58.5644 57.1742 58.4339 56.7322 58.4339 56.267H59.8614C59.8819 56.6598 59.9944 56.9726 60.1991 57.2052C60.4038 57.4326 60.6545 57.5954 60.9512 57.6937C61.248 57.7867 61.5422 57.8332 61.8338 57.8332C62.2227 57.8332 62.5476 57.7815 62.8085 57.6782C63.0746 57.5748 63.2767 57.4326 63.4148 57.2517C63.553 57.0708 63.622 56.864 63.622 56.6314Z" fill="white"/>
<path d="M68.3267 46.9468V58.8567H66.9068V46.9468H68.3267ZM67.989 54.344L67.398 54.3207C67.4031 53.747 67.4876 53.2171 67.6513 52.7312C67.815 52.2401 68.0453 51.8137 68.342 51.4518C68.6388 51.09 68.9918 50.8108 69.4011 50.6144C69.8156 50.4128 70.2735 50.312 70.7749 50.312C71.1842 50.312 71.5526 50.3689 71.8801 50.4826C72.2075 50.5911 72.4864 50.7669 72.7166 51.0099C72.952 51.2528 73.1311 51.5681 73.2539 51.9558C73.3767 52.3383 73.4381 52.8062 73.4381 53.3593V58.8567H72.0105V53.3438C72.0105 52.9044 71.9466 52.5529 71.8187 52.2892C71.6908 52.0204 71.504 51.8266 71.2584 51.7077C71.0128 51.5836 70.711 51.5216 70.3528 51.5216C69.9998 51.5216 69.6774 51.5966 69.3858 51.7465C69.0993 51.8964 68.8511 52.1031 68.6413 52.3668C68.4367 52.6304 68.2755 52.9328 68.1578 53.274C68.0453 53.61 67.989 53.9667 67.989 54.344Z" fill="white"/>
<path d="M75.1879 54.755V54.5766C75.1879 53.9718 75.2749 53.411 75.4488 52.894C75.6228 52.3719 75.8735 51.9196 76.201 51.5371C76.5284 51.1494 76.925 50.8496 77.3906 50.6377C77.8562 50.4206 78.378 50.312 78.9562 50.312C79.5395 50.312 80.0639 50.4206 80.5295 50.6377C81.0002 50.8496 81.3993 51.1494 81.7268 51.5371C82.0594 51.9196 82.3126 52.3719 82.4866 52.894C82.6606 53.411 82.7475 53.9718 82.7475 54.5766V54.755C82.7475 55.3598 82.6606 55.9206 82.4866 56.4375C82.3126 56.9545 82.0594 57.4068 81.7268 57.7945C81.3993 58.177 81.0028 58.4768 80.5372 58.6939C80.0767 58.9058 79.5548 59.0118 78.9716 59.0118C78.3883 59.0118 77.8638 58.9058 77.3982 58.6939C76.9326 58.4768 76.5335 58.177 76.201 57.7945C75.8735 57.4068 75.6228 56.9545 75.4488 56.4375C75.2749 55.9206 75.1879 55.3598 75.1879 54.755ZM76.6077 54.5766V54.755C76.6077 55.1737 76.6563 55.5691 76.7535 55.9413C76.8508 56.3083 76.9966 56.634 77.191 56.9183C77.3906 57.2026 77.6387 57.4274 77.9355 57.5929C78.2322 57.7531 78.5776 57.8332 78.9716 57.8332C79.3604 57.8332 79.7007 57.7531 79.9923 57.5929C80.2891 57.4274 80.5346 57.2026 80.7291 56.9183C80.9235 56.634 81.0693 56.3083 81.1665 55.9413C81.2689 55.5691 81.32 55.1737 81.32 54.755V54.5766C81.32 54.1631 81.2689 53.7728 81.1665 53.4058C81.0693 53.0336 80.9209 52.7054 80.7214 52.4211C80.527 52.1316 80.2814 51.9041 79.9846 51.7387C79.693 51.5733 79.3502 51.4906 78.9562 51.4906C78.5674 51.4906 78.2245 51.5733 77.9278 51.7387C77.6361 51.9041 77.3906 52.1316 77.191 52.4211C76.9966 52.7054 76.8508 53.0336 76.7535 53.4058C76.6563 53.7728 76.6077 54.1631 76.6077 54.5766Z" fill="white"/>
<path d="M85.9479 52.0799V62.0823H84.5204V50.4671H85.8251L85.9479 52.0799ZM91.5428 54.5921V54.755C91.5428 55.3649 91.4712 55.931 91.3279 56.453C91.1847 56.97 90.9749 57.4197 90.6986 57.8022C90.4274 58.1847 90.0923 58.482 89.6932 58.6939C89.2941 58.9058 88.8362 59.0118 88.3194 59.0118C87.7924 59.0118 87.3268 58.9239 86.9226 58.7482C86.5184 58.5724 86.1756 58.3166 85.8942 57.9806C85.6128 57.6446 85.3877 57.2414 85.2188 56.771C85.0551 56.3006 84.9425 55.7707 84.8811 55.1814V54.313C84.9425 53.6927 85.0576 53.137 85.2265 52.6459C85.3953 52.1548 85.6179 51.7361 85.8942 51.3898C86.1756 51.0383 86.5158 50.7721 86.9149 50.5911C87.314 50.4051 87.7745 50.312 88.2964 50.312C88.8183 50.312 89.2813 50.4154 89.6855 50.6222C90.0897 50.8238 90.43 51.1132 90.7063 51.4906C90.9826 51.8679 91.1898 52.3203 91.3279 52.8475C91.4712 53.3696 91.5428 53.9511 91.5428 54.5921ZM90.1153 54.755V54.5921C90.1153 54.1734 90.0718 53.7806 89.9848 53.4135C89.8979 53.0414 89.7623 52.7157 89.5781 52.4366C89.399 52.1523 89.1687 51.93 88.8873 51.7697C88.6059 51.6043 88.2708 51.5216 87.8819 51.5216C87.5238 51.5216 87.2117 51.5836 86.9456 51.7077C86.6847 51.8318 86.4621 51.9998 86.2779 52.2117C86.0937 52.4185 85.9428 52.6563 85.8251 52.9251C85.7125 53.1887 85.6281 53.4627 85.5718 53.747V55.7552C85.6742 56.117 85.8174 56.4582 86.0016 56.7787C86.1858 57.094 86.4314 57.3499 86.7384 57.5463C87.0454 57.7376 87.4317 57.8332 87.8973 57.8332C88.281 57.8332 88.611 57.7531 88.8873 57.5929C89.1687 57.4274 89.399 57.2026 89.5781 56.9183C89.7623 56.634 89.8979 56.3083 89.9848 55.9413C90.0718 55.5691 90.1153 55.1737 90.1153 54.755Z" fill="white"/>
<path d="M66.056 36.36C65.864 36.36 65.4907 36.392 64.936 36.456C64.3813 36.4987 63.8053 36.5627 63.208 36.648C62.6107 36.712 62.0667 36.776 61.576 36.84C61.1067 36.904 60.8507 36.9467 60.808 36.968C61.064 36.0507 61.32 35.0373 61.576 33.928C61.832 32.7973 62.088 31.624 62.344 30.408C62.6213 29.1707 62.8773 27.9227 63.112 26.664C63.368 25.4053 63.6133 24.1893 63.848 23.016C64.3813 20.2853 64.904 17.48 65.416 14.6L70.408 13.8C69.8533 16.6587 69.2987 19.464 68.744 22.216C68.5093 23.3893 68.264 24.6053 68.008 25.864C67.7733 27.1227 67.5387 28.3707 67.304 29.608C67.0907 30.8453 66.8667 32.0507 66.632 33.224C66.4187 34.376 66.2267 35.4213 66.056 36.36ZM71.73 37.032C72.2207 34.6853 72.69 32.3707 73.138 30.088C73.33 29.128 73.522 28.1253 73.714 27.08C73.906 26.0347 74.0873 25.0107 74.258 24.008C74.45 22.984 74.61 22.0027 74.738 21.064C74.8873 20.104 75.0153 19.2293 75.122 18.44C74.6313 18.376 74.13 18.3547 73.618 18.376C73.1273 18.3973 72.6367 18.3333 72.146 18.184C72.1673 17.8427 72.178 17.448 72.178 17C72.178 16.552 72.1887 16.104 72.21 15.656C72.2313 15.1653 72.2527 14.6427 72.274 14.088C72.8287 14.1307 73.3833 14.1627 73.938 14.184C74.4927 14.2053 75.0473 14.216 75.602 14.216C76.69 14.216 77.7353 14.1947 78.738 14.152C79.762 14.088 80.7007 14.024 81.554 13.96C82.4287 13.8747 83.282 13.7787 84.114 13.672L83.762 15.4C83.6553 15.8907 83.5487 16.392 83.442 16.904C83.3567 17.416 83.2713 17.8533 83.186 18.216C82.7167 18.344 82.2367 18.44 81.746 18.504C81.2767 18.5467 80.8073 18.6107 80.338 18.696C80.1887 19.4213 80.0287 20.232 79.858 21.128C79.6873 22.0027 79.5167 22.92 79.346 23.88C79.1967 24.8187 79.0473 25.7787 78.898 26.76C78.7487 27.7413 78.5993 28.68 78.45 29.576C78.1087 31.688 77.7887 33.8747 77.49 36.136L71.73 37.032Z" fill="#E1E1E6"/>
<path d="M95.3558 30.76C95.0571 31.976 94.6304 33.0107 94.0758 33.864C93.5424 34.7173 92.9024 35.4213 92.1558 35.976C91.4304 36.5307 90.6518 36.936 89.8198 37.192C88.9878 37.448 88.1558 37.576 87.3238 37.576C86.8331 37.576 86.3318 37.4907 85.8198 37.32C85.3078 37.1707 84.8491 36.936 84.4438 36.616C84.0384 36.296 83.6971 35.8907 83.4198 35.4C83.1638 34.9093 83.0358 34.3333 83.0358 33.672C83.0358 33.5867 83.0358 33.5013 83.0358 33.416C83.0358 33.3307 83.0464 33.2453 83.0678 33.16C83.1531 32.2853 83.2918 31.2293 83.4838 29.992C83.6758 28.7547 83.8784 27.464 84.0918 26.12C84.3051 24.776 84.5398 23.432 84.7958 22.088C85.0518 20.7227 85.2758 19.4853 85.4678 18.376C85.6811 17.2667 85.8624 16.3493 86.0118 15.624C86.1611 14.8773 86.2571 14.4187 86.2998 14.248C86.7478 14.2053 87.2811 14.152 87.8998 14.088C88.5184 14.024 89.0944 13.9707 89.6278 13.928C90.2891 13.864 90.9398 13.8 91.5798 13.736C91.0251 16.3173 90.5344 18.6533 90.1078 20.744C89.9158 21.64 89.7238 22.536 89.5318 23.432C89.3611 24.328 89.1904 25.1493 89.0198 25.896C88.8704 26.6427 88.7318 27.2933 88.6038 27.848C88.4971 28.3813 88.4011 28.8187 88.3158 29.16C88.2518 29.5013 88.1664 29.9387 88.0598 30.472C87.9744 30.984 87.9318 31.4533 87.9318 31.88C87.9318 32.2213 88.0171 32.5093 88.1878 32.744C88.3584 32.9573 88.5718 33.064 88.8278 33.064C89.1904 33.064 89.4891 32.9253 89.7238 32.648C89.9584 32.3493 90.1504 31.9973 90.2998 31.592C90.4704 31.1867 90.5878 30.7813 90.6518 30.376C90.7371 29.9493 90.8118 29.6187 90.8758 29.384C91.0038 28.7653 91.1424 28.0827 91.2918 27.336C91.4624 26.568 91.6224 25.7787 91.7718 24.968C91.9424 24.136 92.1024 23.2933 92.2518 22.44C92.4224 21.5867 92.5824 20.7547 92.7318 19.944C93.0944 18.0667 93.4464 16.1253 93.7878 14.12L98.6518 13.8C98.6518 13.8 98.5984 14.0773 98.4918 14.632C98.3851 15.1867 98.2464 15.9227 98.0758 16.84C97.9051 17.7573 97.7131 18.8027 97.4998 19.976C97.3078 21.1493 97.0838 22.376 96.8278 23.656C96.5718 24.9147 96.3158 26.1627 96.0598 27.4C95.8251 28.616 95.5904 29.736 95.3558 30.76ZM111.226 29.096C111.226 30.2907 110.991 31.3787 110.522 32.36C110.074 33.32 109.455 34.152 108.666 34.856C107.898 35.56 106.981 36.104 105.914 36.488C104.869 36.872 103.738 37.064 102.522 37.064C101.669 37.064 100.815 36.84 99.962 36.392C99.1087 35.9227 98.2873 35.1867 97.498 34.184L99.866 29.544C100.015 29.8213 100.239 30.1093 100.538 30.408C100.837 30.6853 101.167 30.9307 101.53 31.144C101.914 31.3573 102.287 31.5387 102.65 31.688C103.034 31.816 103.375 31.88 103.674 31.88C103.93 31.88 104.197 31.8373 104.474 31.752C104.751 31.6667 105.007 31.5387 105.242 31.368C105.477 31.1973 105.658 31.0053 105.786 30.792C105.935 30.5573 106.01 30.2907 106.01 29.992C106.01 29.48 105.839 29.0107 105.498 28.584C105.178 28.136 104.773 27.72 104.282 27.336C103.791 26.9307 103.258 26.5253 102.682 26.12C102.106 25.7147 101.573 25.288 101.082 24.84C100.613 24.392 100.207 23.8907 99.866 23.336C99.5247 22.7813 99.354 22.1627 99.354 21.48C99.354 20.3707 99.6847 19.336 100.346 18.376C101.007 17.416 101.829 16.5947 102.81 15.912C103.813 15.208 104.901 14.6533 106.074 14.248C107.247 13.8427 108.357 13.64 109.402 13.64C109.978 13.64 110.522 13.7147 111.034 13.864C111.546 13.992 111.983 14.216 112.346 14.536C112.73 14.8347 113.029 15.2187 113.242 15.688C113.477 16.1573 113.594 16.744 113.594 17.448C113.594 17.7467 113.562 18.0453 113.498 18.344C113.455 18.6427 113.413 18.9627 113.37 19.304L108.73 20.648C108.773 20.4773 108.805 20.3067 108.826 20.136C108.869 19.9653 108.89 19.7947 108.89 19.624C108.89 18.984 108.773 18.5253 108.538 18.248C108.325 17.9493 108.037 17.8 107.674 17.8C107.503 17.8 107.29 17.864 107.034 17.992C106.799 18.12 106.554 18.2907 106.298 18.504C106.063 18.696 105.861 18.9307 105.69 19.208C105.519 19.4853 105.434 19.784 105.434 20.104C105.434 20.616 105.573 21.0427 105.85 21.384C106.149 21.7253 106.511 22.0453 106.938 22.344C107.365 22.6427 107.823 22.952 108.314 23.272C108.826 23.5707 109.295 23.9653 109.722 24.456C110.149 24.9467 110.501 25.5653 110.778 26.312C111.077 27.0373 111.226 27.9653 111.226 29.096Z" fill="#00875F"/>
</svg>
